<?xml version="1.0" standalone="no"?><!DOCTYPE svg PUBLIC "-//W3C//DTD SVG 1.1//EN" "http://www.w3.org/Graphics/SVG/1.1/DTD/svg11.dtd"><svg t="1573225307416" class="icon" viewBox="0 0 1024 1024" version="1.1" xmlns="http://www.w3.org/2000/svg" p-id="1931" xmlns:xlink="http://www.w3.org/1999/xlink" width="32" height="32"><defs><style type="text/css"></style></defs><path d="M377.5 271.5c31.3 29.1 47.3 66.3 47.3 112.1 0 45.1-17.5 85.9-51 123-20.4 21.1-56.1 48.8-107.8 83.7-56.1 37.1-89.6 69.9-100.5 98.3h260v69.9H67.2c0-51.7 16.8-96.8 51.7-136.1 18.9-22.6 58.3-53.9 117.3-94.6 35-24.7 59.7-44.4 74.3-59.7 23.3-26.2 35.7-54.6 35.7-85.2 0-29.1-8-51-24-65.5-16-14.6-40.1-21.8-70.7-21.8-32.8 0-57.5 10.9-74.3 33.5-17.5 21.8-26.2 53.2-27.7 95.4H70.1c0.7-58.2 17.5-104.8 50.3-139.8 33.5-37.8 78.7-56 134-56 49.5-0.1 91 13.7 123.1 42.8zM705.2 238.7c83.8 0 147.1 23.3 190.8 70.6 40.8 43.7 61.2 107 61.2 189.3 0 81.5-21.1 144.9-62.6 190-43.7 46.6-107.1 69.9-190.8 69.9h-188V238.7h189.4z m-110 452.1h94c65.6 0 114.4-16 144.9-47.3 29.9-31.3 45.2-79.4 45.2-144.9 0-67-15.3-115-44.4-145.6-30.6-31.3-78.7-46.6-144.2-46.6h-95.4l-0.1 384.4z" p-id="1932" fill="#781e02"></path></svg>