<?xml version="1.0" standalone="no"?><!DOCTYPE svg PUBLIC "-//W3C//DTD SVG 1.1//EN" "http://www.w3.org/Graphics/SVG/1.1/DTD/svg11.dtd"><svg t="1573225659175" class="icon" viewBox="0 0 1024 1024" version="1.1" xmlns="http://www.w3.org/2000/svg" p-id="7542" xmlns:xlink="http://www.w3.org/1999/xlink" width="32" height="32"><defs><style type="text/css"></style></defs><path d="M785.066667 897.706667H341.333333c-58.026667 0-102.4-44.373333-102.4-102.4v-187.733334c0-10.24 6.826667-17.066667 17.066667-17.066666s17.066667 6.826667 17.066667 17.066666v187.733334c0 37.546667 30.72 68.266667 68.266666 68.266666h443.733334c37.546667 0 68.266667-30.72 68.266666-68.266666v-443.733334c0-37.546667-30.72-68.266667-68.266666-68.266666h-221.866667c-10.24 0-17.066667-10.24-17.066667-17.066667s6.826667-17.066667 17.066667-17.066667H785.066667c58.026667 0 102.4 44.373333 102.4 102.4v443.733334c0 54.613333-44.373333 102.4-102.4 102.4zM180.906667 488.106667h-17.066667c-10.24 0-17.066667-6.826667-17.066667-17.066667s6.826667-17.066667 17.066667-17.066667h17.066667c10.24 0 17.066667 6.826667 17.066666 17.066667s-10.24 17.066667-17.066666 17.066667zM460.8 180.906667c-10.24 0-17.066667-10.24-17.066667-17.066667v-17.066667c0-10.24 6.826667-17.066667 17.066667-17.066666s17.066667 6.826667 17.066667 17.066666v17.066667c0 6.826667-6.826667 17.066667-17.066667 17.066667z" fill="#781e02" p-id="7543"></path><path d="M375.466667 624.64H283.306667c-61.44 0-112.64-64.853333-112.64-119.466667v-68.266666-3.413334l-13.653334-13.653333c-13.653333-13.653333-20.48-30.72-20.48-47.786667 0-17.066667 6.826667-34.133333 20.48-44.373333 10.24-10.24 27.306667-17.066667 40.96-17.066667v-10.24c0-17.066667 6.826667-34.133333 20.48-44.373333 13.653333-13.653333 37.546667-20.48 58.026667-17.066667 0-13.653333 6.826667-27.306667 17.066667-37.546666 20.48-17.066667 47.786667-23.893333 71.68-13.653334 3.413333-10.24 10.24-20.48 17.066666-30.72 27.306667-20.48 68.266667-20.48 92.16 3.413334l68.266667 68.266666c44.373333 44.373333 71.68 102.4 71.68 163.84 0 126.293333-105.813333 232.106667-238.933333 232.106667z m-170.666667-160.426667v40.96c0 37.546667 37.546667 85.333333 78.506667 85.333334H375.466667c112.64 0 204.8-88.746667 204.8-201.386667 0-51.2-20.48-102.4-58.026667-139.946667l-68.266667-68.266666c-13.653333-10.24-30.72-10.24-44.373333 0-6.826667 6.826667-10.24 13.653333-10.24 20.48s3.413333 13.653333 10.24 20.48c6.826667 6.826667 6.826667 17.066667 0 23.893333-6.826667 6.826667-17.066667 6.826667-23.893333 0l-23.893334-20.48c-13.653333-10.24-30.72-10.24-44.373333 0-3.413333 6.826667-6.826667 13.653333-6.826667 20.48s3.413333 13.653333 10.24 20.48l20.48 23.893333c6.826667 6.826667 6.826667 17.066667 0 23.893334-6.826667 6.826667-17.066667 6.826667-23.893333 0l-34.133333-30.72c-13.653333-13.653333-30.72-13.653333-44.373334-3.413334-3.413333 6.826667-6.826667 13.653333-6.826666 20.48s3.413333 13.653333 6.826666 20.48L296.96 375.466667c6.826667 6.826667 6.826667 17.066667 0 23.893333-6.826667 6.826667-17.066667 6.826667-23.893333 0l-47.786667-47.786667c-13.653333-10.24-30.72-10.24-44.373333 0-6.826667 6.826667-10.24 13.653333-10.24 20.48s3.413333 13.653333 10.24 20.48l105.813333 98.986667c6.826667 6.826667 6.826667 17.066667 0 23.893333-6.826667 6.826667-17.066667 6.826667-23.893333 0L204.8 464.213333z" fill="#781e02" p-id="7544"></path></svg>