<?xml version="1.0" standalone="no"?><!DOCTYPE svg PUBLIC "-//W3C//DTD SVG 1.1//EN" "http://www.w3.org/Graphics/SVG/1.1/DTD/svg11.dtd"><svg t="1573225474362" class="icon" viewBox="0 0 1024 1024" version="1.1" xmlns="http://www.w3.org/2000/svg" p-id="4770" xmlns:xlink="http://www.w3.org/1999/xlink" width="32" height="32"><defs><style type="text/css"></style></defs><path d="M895.26856 640.58734h-191.706329a127.80422 127.80422 0 0 0-127.80422 127.80422v127.80422a127.80422 127.80422 0 0 0 127.80422 127.80422h191.706329a127.80422 127.80422 0 0 0 127.80422-127.80422v-127.80422a127.80422 127.80422 0 0 0-127.80422-127.80422z m63.90211 255.60844a63.90211 63.90211 0 0 1-63.90211 63.90211h-191.706329a63.90211 63.90211 0 0 1-63.90211-63.90211v-127.80422a63.90211 63.90211 0 0 1 63.90211-63.90211h191.706329a63.90211 63.90211 0 0 1 63.90211 63.90211zM821.781134 182.409212a95.853165 95.853165 0 1 0-45.370498-45.370498l-639.0211 639.021099a95.853165 95.853165 0 1 0 45.370498 45.370498z m17.892591-107.994566a31.951055 31.951055 0 1 1 0 45.370498 31.951055 31.951055 0 0 1 0-46.009519zM118.218903 885.971442a31.951055 31.951055 0 1 1 0-45.370498 31.951055 31.951055 0 0 1 0 45.370498z" p-id="4771" fill="#781e02"></path></svg>