<svg width="600" height="600" xmlns="http://www.w3.org/2000/svg" xmlns:xlink="http://www.w3.org/1999/xlink">
    <circle cx="0" cy="10" r="5" fill="red" stroke="#fff" stroke-width="1">
      <animateMotion path="m263.5,203.5c0,0 1.076111,0.38269 2,0c1.306549,-0.541199 1.0979,-1.824432 3,-3c0.850647,-0.525726 2,-1 3,-2c1,-1 1.076111,-1.61731 2,-2c1.306549,-0.541199 2,-2 3,-3c1,-1 2.486267,-1.823746 3,-4c0.229767,-0.973251 0.458801,-1.693436 1,-3c0.38269,-0.923874 1.458801,-1.693436 2,-3c0.38269,-0.923874 0.458801,-2.693436 1,-4c0.38269,-0.923874 1.486267,-2.823746 2,-5c0.229767,-0.973251 0.292908,-1.292892 1,-2c0.707092,-0.707108 1,-1 1,-2c0,-1 1.486267,-1.823746 2,-4c0.229767,-0.973251 0.458801,-1.693436 1,-3c0.38269,-0.923874 0.486267,-1.823746 1,-4c0.229767,-0.973251 1,-3 1,-4c0,-1 0,-2 0,-3c0,-2 1,-2 1,-3c0,-1 0,-2 0,-3c0,-1 0,-2 0,-3c0,-1 0.486267,-1.823746 1,-4c0.229767,-0.973251 0,-3 0,-4c0,-2 -0.306549,-3.458801 1,-4c0.923889,-0.38269 0.61731,-1.076126 1,-2c0.541199,-1.306564 2.376404,-2.080315 4,-6c0.38269,-0.923882 1,-3 2,-4c1,-1 1.292908,-2.292892 2,-3c0.707092,-0.707108 1.292908,-1.292892 2,-2c0.707092,-0.707108 1.824432,-0.097885 3,-2c0.525726,-0.850655 0.0979,-2.824432 2,-4c0.850647,-0.525734 3,0 4,1c2,2 3,3 4,4c1,1 1.852722,1.173096 3,2c1.813995,1.307449 1.693451,2.458801 3,3c0.923889,0.382683 1.823761,0.486259 4,1c0.973236,0.229752 0.693451,1.458801 2,2c0.923889,0.382683 1.770233,0.026749 2,1c0.513733,2.176254 1.852722,2.173096 3,3c1.813995,1.307449 3,2 5,4c1,1 2.386871,1.917603 5,3c0.923889,0.38269 2.474274,1.149353 3,2c1.175568,1.902115 3.186005,0.692551 5,2c1.147278,0.826904 3,2 4,2c1,0 1.61731,1.076126 2,2c0.541199,1.306564 1.692535,1.186005 3,3c0.826904,1.147263 3,2 3,3c0,1 0.486267,1.823746 1,4c0.229767,0.973251 1,2 1,3c0,1 0.292908,1.292892 1,2c0.707092,0.707108 1,2 1,4c0,1 0.458801,2.693436 1,4c0.765381,1.847763 0.458801,2.693436 1,4c0.38269,0.923874 0.458801,1.693436 1,3c0.38269,0.923874 0,2 0,3c0,1 0,2 0,3c0,1 0.707092,2.292892 0,3c-0.707092,0.707108 -3.012909,0.839813 -4,1c-3.121429,0.506546 -4.693451,1.458801 -6,2c-1.847748,0.765366 -4.934143,0.144287 -7,1c-2.92157,1.210144 -5.159271,0.610641 -8,2c-3.238922,1.584106 -4.824432,1.097885 -6,3c-0.525726,0.850647 -1.173096,0.852737 -2,2c-1.307465,1.813995 -2.692535,3.186005 -4,5c-0.826904,1.147263 -2.707092,2.292892 -2,3c0.707092,0.707108 2.076111,0.38269 3,0c1.306549,-0.541199 2,-1 3,-1c1,0 1.693451,-0.458801 3,-1c0.923889,-0.38269 3,0 5,0c2,0 3,-1 4,-1c3,0 4.386871,-0.917603 7,-2c0.923889,-0.38269 3,0 4,0c2,0 3,0 4,0c3,0 4,0 5,0c1,0 2.026764,-0.229752 3,0c2.176239,0.513748 2.61731,2.076126 3,3c1.082397,2.613129 2,3 2,5c0,2 0,4 0,7c0,2 -0.75531,5.132004 -3,9c-1.809723,3.118484 -4.346191,6.70546 -6,9c-1.307465,1.813995 -2,4 -4,6c-1,1 -1.292908,3.292892 -2,4c-1.414215,1.414215 -4,2 -5,3c-2,2 -4,3 -5,4c-1,1 -1.234619,1.152237 -2,3c-1.082397,2.613129 -2.234619,3.152237 -3,5c-1.082397,2.613129 -2,3 -3,4c-2,2 -1.292908,4.292908 -2,5c-0.707092,0.707092 -1.418854,2.418854 -3,4c-1.581146,1.581146 -0.692535,3.186005 -2,5c-0.826904,1.147278 -1.852722,3.173096 -3,4c-1.813995,1.307465 -2.076111,1.61731 -3,2c-1.306549,0.541199 -3,1 -5,3c-1,1 -1.693451,1.458801 -3,2c-0.923889,0.38269 -2.228363,1.148041 -5,0c-2.613129,-1.082397 -5.692383,-6.410919 -9,-11c-2.614899,-3.627991 -4.288574,-7.868286 -6,-12c-1.210144,-2.92157 -3.61731,-8.076126 -4,-9c-0.541199,-1.306564 -2,-3 -3,-4c-1,-1 -2.917603,-2.386871 -4,-5c-0.38269,-0.923874 -0.693451,-2.458801 -2,-3c-0.923889,-0.38269 -2.61731,-3.076126 -3,-4c-0.541199,-1.306564 -3,-3 -4,-4c-1,-1 -2.458801,-1.693436 -3,-3c-0.765381,-1.847763 -0.692535,-2.186005 -2,-4c-0.826904,-1.147263 -0.61731,-2.076126 -1,-3c-0.541199,-1.306564 -1.418854,-2.418854 -3,-4c-1.581146,-1.581146 -3,-2 -3,-3l0,-1" begin="0s" dur="3s" repeatCount="indefinite"/>
    </circle>
    <path d="m263.5,203.5c0,0 1.076111,0.38269 2,0c1.306549,-0.541199 1.0979,-1.824432 3,-3c0.850647,-0.525726 2,-1 3,-2c1,-1 1.076111,-1.61731 2,-2c1.306549,-0.541199 2,-2 3,-3c1,-1 2.486267,-1.823746 3,-4c0.229767,-0.973251 0.458801,-1.693436 1,-3c0.38269,-0.923874 1.458801,-1.693436 2,-3c0.38269,-0.923874 0.458801,-2.693436 1,-4c0.38269,-0.923874 1.486267,-2.823746 2,-5c0.229767,-0.973251 0.292908,-1.292892 1,-2c0.707092,-0.707108 1,-1 1,-2c0,-1 1.486267,-1.823746 2,-4c0.229767,-0.973251 0.458801,-1.693436 1,-3c0.38269,-0.923874 0.486267,-1.823746 1,-4c0.229767,-0.973251 1,-3 1,-4c0,-1 0,-2 0,-3c0,-2 1,-2 1,-3c0,-1 0,-2 0,-3c0,-1 0,-2 0,-3c0,-1 0.486267,-1.823746 1,-4c0.229767,-0.973251 0,-3 0,-4c0,-2 -0.306549,-3.458801 1,-4c0.923889,-0.38269 0.61731,-1.076126 1,-2c0.541199,-1.306564 2.376404,-2.080315 4,-6c0.38269,-0.923882 1,-3 2,-4c1,-1 1.292908,-2.292892 2,-3c0.707092,-0.707108 1.292908,-1.292892 2,-2c0.707092,-0.707108 1.824432,-0.097885 3,-2c0.525726,-0.850655 0.0979,-2.824432 2,-4c0.850647,-0.525734 3,0 4,1c2,2 3,3 4,4c1,1 1.852722,1.173096 3,2c1.813995,1.307449 1.693451,2.458801 3,3c0.923889,0.382683 1.823761,0.486259 4,1c0.973236,0.229752 0.693451,1.458801 2,2c0.923889,0.382683 1.770233,0.026749 2,1c0.513733,2.176254 1.852722,2.173096 3,3c1.813995,1.307449 3,2 5,4c1,1 2.386871,1.917603 5,3c0.923889,0.38269 2.474274,1.149353 3,2c1.175568,1.902115 3.186005,0.692551 5,2c1.147278,0.826904 3,2 4,2c1,0 1.61731,1.076126 2,2c0.541199,1.306564 1.692535,1.186005 3,3c0.826904,1.147263 3,2 3,3c0,1 0.486267,1.823746 1,4c0.229767,0.973251 1,2 1,3c0,1 0.292908,1.292892 1,2c0.707092,0.707108 1,2 1,4c0,1 0.458801,2.693436 1,4c0.765381,1.847763 0.458801,2.693436 1,4c0.38269,0.923874 0.458801,1.693436 1,3c0.38269,0.923874 0,2 0,3c0,1 0,2 0,3c0,1 0.707092,2.292892 0,3c-0.707092,0.707108 -3.012909,0.839813 -4,1c-3.121429,0.506546 -4.693451,1.458801 -6,2c-1.847748,0.765366 -4.934143,0.144287 -7,1c-2.92157,1.210144 -5.159271,0.610641 -8,2c-3.238922,1.584106 -4.824432,1.097885 -6,3c-0.525726,0.850647 -1.173096,0.852737 -2,2c-1.307465,1.813995 -2.692535,3.186005 -4,5c-0.826904,1.147263 -2.707092,2.292892 -2,3c0.707092,0.707108 2.076111,0.38269 3,0c1.306549,-0.541199 2,-1 3,-1c1,0 1.693451,-0.458801 3,-1c0.923889,-0.38269 3,0 5,0c2,0 3,-1 4,-1c3,0 4.386871,-0.917603 7,-2c0.923889,-0.38269 3,0 4,0c2,0 3,0 4,0c3,0 4,0 5,0c1,0 2.026764,-0.229752 3,0c2.176239,0.513748 2.61731,2.076126 3,3c1.082397,2.613129 2,3 2,5c0,2 0,4 0,7c0,2 -0.75531,5.132004 -3,9c-1.809723,3.118484 -4.346191,6.70546 -6,9c-1.307465,1.813995 -2,4 -4,6c-1,1 -1.292908,3.292892 -2,4c-1.414215,1.414215 -4,2 -5,3c-2,2 -4,3 -5,4c-1,1 -1.234619,1.152237 -2,3c-1.082397,2.613129 -2.234619,3.152237 -3,5c-1.082397,2.613129 -2,3 -3,4c-2,2 -1.292908,4.292908 -2,5c-0.707092,0.707092 -1.418854,2.418854 -3,4c-1.581146,1.581146 -0.692535,3.186005 -2,5c-0.826904,1.147278 -1.852722,3.173096 -3,4c-1.813995,1.307465 -2.076111,1.61731 -3,2c-1.306549,0.541199 -3,1 -5,3c-1,1 -1.693451,1.458801 -3,2c-0.923889,0.38269 -2.228363,1.148041 -5,0c-2.613129,-1.082397 -5.692383,-6.410919 -9,-11c-2.614899,-3.627991 -4.288574,-7.868286 -6,-12c-1.210144,-2.92157 -3.61731,-8.076126 -4,-9c-0.541199,-1.306564 -2,-3 -3,-4c-1,-1 -2.917603,-2.386871 -4,-5c-0.38269,-0.923874 -0.693451,-2.458801 -2,-3c-0.923889,-0.38269 -2.61731,-3.076126 -3,-4c-0.541199,-1.306564 -3,-3 -4,-4c-1,-1 -2.458801,-1.693436 -3,-3c-0.765381,-1.847763 -0.692535,-2.186005 -2,-4c-0.826904,-1.147263 -0.61731,-2.076126 -1,-3c-0.541199,-1.306564 -1.418854,-2.418854 -3,-4c-1.581146,-1.581146 -3,-2 -3,-3l0,-1" id="svg_2" stroke-width="1.5" stroke="#ddd" fill="none"/>
  </svg>
