<?xml version="1.0" standalone="no"?><!DOCTYPE svg PUBLIC "-//W3C//DTD SVG 1.1//EN" "http://www.w3.org/Graphics/SVG/1.1/DTD/svg11.dtd"><svg t="1573225065994" class="icon" viewBox="0 0 1024 1024" version="1.1" xmlns="http://www.w3.org/2000/svg" p-id="2084" xmlns:xlink="http://www.w3.org/1999/xlink" width="32" height="32"><defs><style type="text/css"></style></defs><path d="M106.882 647.823c32.869 24.602 71.254 36.898 115.151 36.898 27.779 0 49.831-6.148 66.165-18.449 16.327-12.297 24.493-29.792 24.493-52.487 0-23.325-9.702-41.138-29.106-53.44-19.404-12.297-46.601-18.45-81.592-18.45h-43.898v-79.206h40.399c66.164 0 99.247-22.268 99.247-66.801 0-41.989-25.344-62.983-76.026-62.983-33.082 0-65.21 10.815-96.384 32.446v-84.932c33.927-17.6 73.903-26.403 119.923-26.403 46.652 0 84.505 10.765 113.561 32.288 29.051 21.526 43.579 51.373 43.579 89.544 0 64.47-32.66 104.971-97.974 121.513v1.591c34.355 3.817 61.815 16.383 82.387 37.695 20.567 21.312 30.857 47.238 30.857 77.775 0 46.869-17.128 83.451-51.372 109.745-34.251 26.297-79.897 39.443-136.942 39.443-50.687 0-91.508-8.379-122.467-25.13v-90.658z" p-id="2085" fill="#781e02"></path><path d="M499.683 755.022v-492.733h170.183c174.954 0 262.43 80.057 262.43 240.164 0 76.134-24.492 137.258-73.481 183.382-48.986 46.124-112.183 69.187-189.585 69.187h-169.547zM604.657 348.176v320.961h57.257c49.831 0 88.957-14.842 117.378-44.534 28.415-29.687 42.627-69.872 42.627-120.559 0-48.986-14.847-87.208-44.534-114.674-29.692-27.461-68.287-41.194-115.787-41.194h-56.939z" p-id="2086" fill="#781e02"></path></svg>